<?xml version="1.0" encoding="utf-8"?>
<!-- Generator: Adobe Illustrator 18.0.0, SVG Export Plug-In . SVG Version: 6.00 Build 0)  -->
<!DOCTYPE svg PUBLIC "-//W3C//DTD SVG 1.1//EN" "http://www.w3.org/Graphics/SVG/1.1/DTD/svg11.dtd">
<svg version="1.1" id="Layer_1" xmlns="http://www.w3.org/2000/svg" xmlns:xlink="http://www.w3.org/1999/xlink" x="0px" y="0px"
	 viewBox="0 0 792 612" enable-background="new 0 0 792 612" xml:space="preserve">
<g>
	<path fill="#94B0BE" d="M774.8,125.2v360.4H17.2V125.2H774.8 M792,108H0v396h792V108L792,108z"/>
</g>
<g enable-background="new    ">
	<path fill="#94B0BE" d="M102.5,248.4h89.4v19.2h-68.3v32.8h60.6v19.2h-60.6v48.9h-21.1V248.4z"/>
	<path fill="#94B0BE" d="M228.1,248.4h21.1v100.9h63.1v19.2h-84.3V248.4z"/>
	<path fill="#94B0BE" d="M348.5,248.4h21.1v120.1h-21.1V248.4z"/>
	<path fill="#94B0BE" d="M414.8,248.4h19.6l64.3,83.1v-83.1h20.8v120.1h-17.7l-66.2-85.5v85.5h-20.8V248.4z"/>
	<path fill="#94B0BE" d="M592.9,268h-38.1v-19.6h97.5V268h-38.1v100.6h-21.3V268z"/>
</g>
</svg>
